<?xml version="1.0" standalone="no"?>
<!DOCTYPE svg PUBLIC "-//W3C//DTD SVG 20010904//EN"
 "http://www.w3.org/TR/2001/REC-SVG-20010904/DTD/svg10.dtd">
<svg version="1.0" xmlns="http://www.w3.org/2000/svg"
 width="16.000000pt" height="16.000000pt" viewBox="0 0 16.000000 16.000000"
 preserveAspectRatio="xMidYMid meet">
<metadata>
Created by potrace 1.11, written by Peter Selinger 2001-2013
</metadata>
<g transform="translate(0.000000,16.000000) scale(0.002952,-0.002952)"
fill="#000000" stroke="none">
<path d="M4420 5365 c-173 -23 -280 -45 -280 -57 0 -5 11 -30 24 -56 47 -93
127 -306 152 -402 8 -31 33 -146 38 -175 2 -16 7 -41 10 -55 3 -13 8 -55 12
-94 8 -88 9 -94 16 -101 7 -7 29 -11 111 -20 37 -3 89 -10 115 -15 42 -7 61
-11 127 -25 35 -8 138 -36 190 -53 93 -30 268 -103 315 -132 45 -27 102 -51
107 -46 4 4 8 12 9 19 1 7 6 37 12 67 29 146 37 237 36 430 0 153 -6 239 -19
315 -3 17 -7 44 -10 60 -9 51 -13 69 -36 163 l-22 91 -51 17 c-28 9 -58 17
-66 18 -8 1 -26 5 -40 9 -14 4 -36 9 -50 11 -14 3 -34 7 -46 10 -12 2 -45 8
-75 11 -30 4 -65 10 -79 12 -60 11 -412 9 -500 -2z"/>
<path d="M939 5206 c-2 -2 -31 -6 -64 -10 -127 -12 -256 -34 -370 -62 -11 -3
-27 -7 -35 -9 -8 -2 -16 -4 -17 -5 -2 -2 -6 -3 -10 -4 -91 -18 -183 -67 -240
-127 -30 -33 -80 -121 -88 -157 -2 -9 -13 -48 -23 -87 -26 -91 -53 -228 -68
-340 -24 -186 -24 -492 0 -650 3 -16 8 -52 11 -80 29 -218 120 -504 234 -735
62 -126 172 -310 185 -310 8 0 7 -3 0 -8 -36 -23 -254 -420 -254 -461 0 -9 -4
-21 -9 -27 -18 -18 -106 -299 -125 -394 -2 -14 -9 -45 -15 -70 -5 -25 -13 -67
-16 -95 -4 -27 -8 -57 -10 -65 -17 -66 -25 -442 -12 -570 10 -93 18 -154 22
-170 2 -8 7 -37 11 -65 3 -27 10 -58 15 -68 6 -9 8 -17 5 -17 -2 0 7 -42 20
-93 14 -50 27 -99 29 -108 17 -80 106 -191 187 -232 68 -34 290 -94 413 -111
22 -3 58 -8 80 -12 94 -13 150 -16 330 -17 173 -1 288 5 355 18 14 3 43 7 65
10 102 12 245 47 395 95 110 36 333 129 338 142 2 4 11 8 21 8 9 0 21 4 27 9
5 5 36 24 69 42 33 18 90 51 127 75 l67 43 58 -37 c225 -145 558 -290 773
-337 72 -15 176 -36 207 -41 21 -3 49 -7 63 -10 106 -19 498 -26 610 -12 25 4
70 9 100 13 91 11 201 34 322 66 117 31 186 65 239 118 49 49 90 119 104 176
45 183 65 269 70 305 3 25 8 52 10 60 4 16 11 75 21 180 7 84 7 339 0 410 -18
165 -28 232 -52 340 -3 14 -7 36 -10 50 -3 14 -12 50 -20 80 -9 30 -18 63 -19
73 -2 9 -7 22 -10 27 -3 5 -8 19 -10 30 -2 10 -10 34 -18 52 -8 18 -24 60 -36
93 -35 95 -139 302 -200 400 -51 82 -65 125 -40 125 5 0 9 6 9 14 0 7 7 19 15
26 8 7 21 24 28 39 8 14 24 44 37 66 68 119 193 397 205 458 2 9 7 22 10 27 3
5 8 18 10 27 2 10 15 59 28 110 34 128 31 217 -10 304 -68 143 -182 219 -339
225 -197 8 -344 -112 -399 -326 -5 -18 -34 -121 -39 -135 -15 -49 -82 -198
-118 -265 -43 -80 -133 -218 -170 -261 -13 -14 -40 -46 -62 -70 -73 -84 -106
-175 -101 -286 4 -93 36 -164 119 -265 92 -114 85 -104 142 -193 94 -148 206
-407 227 -525 3 -14 10 -43 15 -65 6 -22 13 -60 16 -85 3 -25 8 -56 11 -70 20
-85 6 -508 -18 -547 -12 -19 -176 -36 -337 -35 -111 0 -187 6 -285 23 -33 5
-69 11 -80 13 -89 14 -276 78 -405 140 -119 57 -308 175 -318 199 -2 4 -10 7
-17 7 -7 0 -15 4 -17 9 -5 14 -102 87 -144 109 -76 39 -166 53 -244 37 -43 -8
-120 -39 -120 -47 0 -4 -6 -8 -14 -8 -8 0 -34 -18 -58 -40 -23 -22 -47 -40
-51 -40 -5 0 -5 -5 -1 -12 4 -6 3 -8 -4 -4 -5 3 -23 -5 -39 -18 -41 -34 -219
-146 -283 -178 -340 -168 -695 -225 -1087 -173 -61 9 -62 10 -78 180 -6 56 -6
275 -1 305 3 14 7 50 11 80 35 340 208 723 443 980 31 34 70 119 79 170 20
120 -13 248 -82 322 -14 15 -25 32 -25 38 0 5 -4 10 -9 10 -9 0 -113 138 -148
198 -80 134 -169 326 -190 407 -1 6 -11 44 -22 85 -51 186 -66 334 -59 590 0
8 4 47 10 85 5 39 11 80 12 93 4 29 4 29 46 36 122 20 379 26 485 12 151 -21
258 -44 374 -83 104 -34 313 -129 319 -145 2 -4 9 -8 16 -8 13 0 208 -131 234
-157 34 -33 120 -93 157 -109 60 -25 83 -29 165 -27 101 1 156 27 311 145 136
103 252 174 374 230 84 38 249 97 294 104 14 3 53 18 86 34 190 92 271 319
183 507 -55 118 -143 187 -277 218 -74 18 -124 11 -280 -35 -127 -38 -264 -92
-391 -154 -87 -42 -126 -64 -266 -150 -42 -25 -50 -27 -68 -15 -220 140 -495
270 -666 314 -8 2 -46 13 -85 25 -92 27 -227 55 -325 66 -25 3 -56 8 -70 11
-28 6 -475 15 -481 9z"/>
</g>
</svg>
