<?xml version="1.0" encoding="utf-8"?>
<!-- Generator: Adobe Illustrator 21.0.2, SVG Export Plug-In . SVG Version: 6.00 Build 0)  -->
<svg version="1.1" id="Capa_1" xmlns="http://www.w3.org/2000/svg" xmlns:xlink="http://www.w3.org/1999/xlink" x="0px" y="0px"
	 viewBox="0 0 1000 1000" style="enable-background:new 0 0 1000 1000;" xml:space="preserve">
<style type="text/css">
	.st0{clip-path:url(#SVGID_2_);}
	.st1{fill:#FB490A;}
	.st2{opacity:0.8;fill:#8DC63F;}
	.st3{fill:#A4D165;}
	.st4{fill:#FF33D9;}
	.st5{fill:#EA0032;}
	.st6{opacity:0.8;fill:#FF00CF;}
	.st7{fill:#FB00AF;}
	.st8{fill:#F9008F;}
	.st9{opacity:0.8;fill:#00BDFF;}
	.st10{fill:#33C9FF;}
	.st11{fill:#21C1DF;}
	.st12{opacity:0.8;fill:#005CFF;}
	.st13{fill:#337DFF;}
	.st14{fill:#0A72FF;}
	.st15{fill:#B633EE;}
	.st16{opacity:0.8;fill:#A500EA;}
	.st17{fill:#8D19EF;}
	.st18{fill:#FF7C33;}
	.st19{opacity:0.8;fill:#FFF200;}
	.st20{fill:#FFF433;}
	.st21{fill:#FFDA0A;}
</style>
<g>
	<defs>
		<rect id="SVGID_1_" width="1000" height="1000"/>
	</defs>
	<clipPath id="SVGID_2_">
		<use xlink:href="#SVGID_1_"  style="overflow:visible;"/>
	</clipPath>
	<g class="st0">
		<path class="st1" d="M974,40c-69.3,22.9-113.8,98.7-91,168c7.6,23.1,24.3,47.2,29.1,71c23.9,3.9,47.5,8.8,70.8,15.5
			c70.2,20.1,143.4-20.4,163.5-90.5c3.8-13,5.4-26.2,5.2-39.1c-1.1-56.5-38.6-108.1-95.7-124.4c-3.8-1.1-7.7-2-11.5-3.1
			C1022.9,33.2,996.2,32.7,974,40z"/>
		<path class="st2" d="M397.5,1350.8c1.5,1,3.1,1.9,4.6,3C400.6,1352.8,399.1,1351.8,397.5,1350.8z"/>
		<path class="st2" d="M1143.1,1692.7c-0.5,0.5-0.9,1-1.3,1.5C1142.2,1693.7,1142.6,1693.2,1143.1,1692.7z"/>
		<path class="st2" d="M250.9,1353.7c2.1-1.5,4.2-2.9,6.4-4.3C255.1,1350.7,253,1352.2,250.9,1353.7z"/>
		<path class="st2" d="M1173.6,1639.8c-0.3,1.2-0.8,2.2-1.2,3.4C1172.8,1642.1,1173.2,1641,1173.6,1639.8z"/>
		<path class="st2" d="M1128.2,1706.2c-1.2,0.9-2.4,1.8-3.6,2.7C1125.9,1708,1127.1,1707.1,1128.2,1706.2z"/>
		<path class="st2" d="M1166.6,1658c-0.5,1.1-0.9,2.1-1.5,3.2C1165.6,1660.1,1166.1,1659,1166.6,1658z"/>
		<path class="st2" d="M1155.8,1676.9c-0.6,0.9-1.2,1.7-1.8,2.5C1154.6,1678.5,1155.3,1677.7,1155.8,1676.9z"/>
		<path class="st2" d="M1088.3,1727.6c0.1,0,0.2-0.1,0.3-0.1c-0.1,0-0.3,0.1-0.4,0.2C1088.2,1727.7,1088.2,1727.7,1088.3,1727.6z"/>
		<path class="st2" d="M240.3,1361.8c2-1.7,4-3.4,6.1-5C244.3,1358.4,242.3,1360.1,240.3,1361.8z"/>
		<path class="st3" d="M1010.5,1729.2c-70.2-20.2-110.7-93.4-90.5-163.5c6.7-23.2,11.6-47,15.5-70.8c-36.8,7.5-74.2,12-112,12.7
			c-60.2,1.2-120.2-6.5-178.2-22.7c-86.3-24.1-164.8-65.7-233.4-123.8c-1.1-0.9-2.2-1.6-3.3-2.5c5.4,4.3,10.6,9,15.5,14.2
			c22.5,24.7,34,55.6,34.6,86.6c0.7,36.7-13.8,73.4-42.9,100.1c-27.2,24.9-55.9,47.9-85.9,69.1c75.2,49.1,157,86.4,244.6,110.8
			c82.8,23.1,168.4,34,254.3,32.3c88.2-1.7,175.1-16.4,258.4-43.7C1062.9,1735.7,1036.5,1736.6,1010.5,1729.2z"/>
		<path class="st2" d="M1109.4,1718.5c-1,0.5-2,1-3,1.5C1107.4,1719.5,1108.5,1719,1109.4,1718.5z"/>
		<path class="st4" d="M-609.9-17.4c-20.3,70.5-30.5,145.2-29,222.3c1.2,63.7,10.5,125.3,26.6,184c94.8-52.8,198.6-83.8,304.1-92.6
			c5.1-115.5,36.8-230.1,95-334C-269.7-50-328.5-56.1-388.9-54.9C-466-53.4-540.2-40.3-609.9-17.4z"/>
		<path class="st5" d="M241.4,451.1c-1.4-0.7-2.8-1.4-4.1-2.2C238.7,449.7,240.1,450.4,241.4,451.1z"/>
		<path class="st5" d="M230.1,444.2c-1.1-0.8-2.3-1.5-3.5-2.3C227.8,442.7,229,443.4,230.1,444.2z"/>
		<path class="st5" d="M252.9,456.7c-1.5-0.6-2.9-1.2-4.4-1.9C249.9,455.5,251.4,456,252.9,456.7z"/>
		<path class="st5" d="M218,434.9c-0.4-0.4-0.9-0.7-1.3-1.1C217.1,434.2,217.6,434.5,218,434.9z"/>
		<path class="st5" d="M264.7,461c-1.5-0.5-3.1-0.9-4.6-1.5C261.6,460.1,263.1,460.6,264.7,461z"/>
		<path class="st5" d="M276.8,464.3c-1.6-0.3-3.2-0.7-4.8-1.1C273.6,463.6,275.2,463.9,276.8,464.3z"/>
		<path class="st5" d="M289.1,466.3c-1.7-0.2-3.4-0.4-5.1-0.7C285.7,465.9,287.4,466.1,289.1,466.3z"/>
		<path class="st5" d="M541.7,48.4C455.8,75.9,376,116,303.2,167.4c30.5,19.9,59.8,41.7,87.7,65.3c29.1,24.6,46,60.5,46.7,98.3
			c0,0.3,0,0.5,0,0.8c0.7,36.3-13.5,71.3-39.4,96.7c-1.5,1.5-3.1,3-4.7,4.4c-5.5,5-11.3,9.3-17.4,13.2c6.2-4,12.1-8.4,17.7-13.5
			c66.3-60.7,143.2-105.3,228.5-132.6c57.4-18.4,117-28.4,177.2-29.5c37.9-0.7,75.4,2.4,112.5,8.4c-4.8-23.9-10.6-47.5-18.3-70.6
			c-22.8-69.3,14.9-144,84.2-166.9c22.2-7.3,44.9-8.3,66.3-4.2c-81.2-22.1-165.2-32.7-249.8-31C708.7,8,623.6,22.1,541.7,48.4z"/>
		<path class="st5" d="M518,106c-85.9,27.5-142,10-214.8,61.4c30.5,19.9,59.8,41.7,87.7,65.3c29.1,24.6,46,60.5,46.7,98.3
			c0,0.3,0,0.5,0,0.8c0.7,36.3-13.5,71.3-39.4,96.7c-1.5,1.5-3.1,3-4.7,4.4c-5.5,5-11.3,9.3-17.4,13.2c6.2-4,12.1-8.4,17.7-13.5
			C460.2,372,511.7,267.3,597,240c57.4-18.4,142.8-5.8,203-7c37.9-0.7,77,27,112.1,46c-4.8-23.9,38.5-55.9,30.9-79
			c-22.8-69.3-17.3-109.1,52-132c22.2-7.3,27.9-34.8,49.3-30.6c-81.2-22.1-168.7-8-253.3-6.4C705.1,32.6,599.9,79.7,518,106z"/>
		<path class="st6" d="M272,463.2c-2.5-0.6-4.9-1.4-7.3-2.1C267.1,461.8,269.5,462.6,272,463.2z"/>
		<path class="st6" d="M284,465.6c-2.4-0.4-4.9-0.9-7.3-1.4C279.2,464.8,281.6,465.3,284,465.6z"/>
		<path class="st4" d="M215.5,237.7c27.9-25.5,57.2-48.8,87.7-70.2C213.7,109,114,66.9,9.8,44.1c-71.3-15.6-141.8,29.5-157.4,100.8
			c-15.6,71.2,29.5,141.8,100.8,157.4c91,19.9,177.3,61,250.8,119.1c3.7,4.2,7.8,8.3,12.2,12.1c0.2,0.1,0.3,0.3,0.5,0.4
			c-3.3-3-6.5-6.1-9.5-9.4C157.9,370.5,161.6,286.9,215.5,237.7z"/>
		<path class="st4" d="M215.5,237.7c27.9-25.5,57.2-48.8,87.7-70.2C213.7,109,114,66.9,9.8,44.1c-71.3-15.6-141.8,29.5-157.4,100.8
			c-15.6,71.2,29.5,141.8,100.8,157.4c91,19.9,177.3,61,250.8,119.1c3.7,4.2,7.8,8.3,12.2,12.1c0.2,0.1,0.3,0.3,0.5,0.4
			c-3.3-3-6.5-6.1-9.5-9.4C157.9,370.5,161.6,286.9,215.5,237.7z"/>
		<path class="st6" d="M226.7,441.9c-3-2.2-5.8-4.5-8.7-7C220.8,437.3,223.7,439.7,226.7,441.9z"/>
		<path class="st6" d="M248.5,454.8c-2.4-1.1-4.7-2.4-7.1-3.7C243.8,452.4,246.1,453.7,248.5,454.8z"/>
		<path class="st6" d="M260.1,459.6c-2.4-0.9-4.8-1.9-7.2-2.9C255.3,457.7,257.6,458.7,260.1,459.6z"/>
		<path class="st6" d="M237.3,448.9c-2.4-1.5-4.8-3.1-7.2-4.7C232.5,445.8,234.9,447.4,237.3,448.9z"/>
		<path class="st7" d="M398.2,428.5c25.9-25.5,40.1-60.4,39.4-96.7c0-0.3,0-0.5,0-0.8c-0.7-37.8-17.6-73.7-46.7-98.3
			c-27.9-23.6-57.2-45.4-87.7-65.3c-30.4,21.5-59.8,44.7-87.7,70.2c-53.9,49.2-57.6,132.8-8.3,186.7c3,3.3,6.2,6.5,9.5,9.4
			c0.4,0.4,0.9,0.7,1.3,1.1c2.8,2.5,5.7,4.8,8.7,7c1.1,0.8,2.3,1.5,3.5,2.3c2.4,1.6,4.7,3.2,7.2,4.7c1.3,0.8,2.7,1.5,4.1,2.2
			c2.3,1.3,4.7,2.5,7.1,3.7c1.4,0.7,2.9,1.3,4.4,1.9c2.4,1,4.8,2,7.2,2.9c1.5,0.5,3.1,1,4.6,1.5c2.4,0.8,4.9,1.5,7.3,2.1
			c1.6,0.4,3.2,0.7,4.8,1.1c2.4,0.5,4.8,1,7.3,1.4c1.7,0.3,3.4,0.5,5.1,0.7c2.3,0.3,4.7,0.5,7.1,0.7c1.8,0.1,3.6,0.2,5.4,0.2
			c2.2,0.1,4.5,0,6.7,0c1.9-0.1,3.9-0.1,5.8-0.3c2.1-0.1,4.2-0.4,6.3-0.6c2-0.2,4.1-0.5,6.1-0.8c1.9-0.3,3.9-0.7,5.8-1.1
			c2.1-0.5,4.3-0.9,6.4-1.5c1.8-0.5,3.5-1,5.3-1.6c2.2-0.7,4.5-1.4,6.6-2.2c1.6-0.6,3.1-1.3,4.7-1.9c2.3-1,4.6-1.9,6.8-3
			c1.4-0.7,2.7-1.4,4.1-2.2c2.4-1.3,4.8-2.5,7.1-3.9c1-0.6,1.9-1.3,2.8-1.9c6-3.9,11.9-8.2,17.4-13.2
			C395.1,431.5,396.7,430,398.2,428.5z"/>
		<path class="st8" d="M398.2,428.5c25.9-25.5,40.1-60.4,39.4-96.7c0-0.3,0-0.5,0-0.8c-0.7-37.8-17.6-73.7-46.7-98.3
			c-27.9-23.6-57.2-45.4-87.7-65.3c-30.4,21.5-59.8,44.7-87.7,70.2c-53.9,49.2-57.6,132.8-8.3,186.7c3,3.3,6.2,6.5,9.5,9.4
			c0.4,0.4,0.9,0.7,1.3,1.1c2.8,2.5,5.7,4.8,8.7,7c1.1,0.8,2.3,1.5,3.5,2.3c2.4,1.6,4.7,3.2,7.2,4.7c1.3,0.8,2.7,1.5,4.1,2.2
			c2.3,1.3,4.7,2.5,7.1,3.7c1.4,0.7,2.9,1.3,4.4,1.9c2.4,1,4.8,2,7.2,2.9c1.5,0.5,3.1,1,4.6,1.5c2.4,0.8,4.9,1.5,7.3,2.1
			c1.6,0.4,3.2,0.7,4.8,1.1c2.4,0.5,4.8,1,7.3,1.4c1.7,0.3,3.4,0.5,5.1,0.7c2.3,0.3,4.7,0.5,7.1,0.7c1.8,0.1,3.6,0.2,5.4,0.2
			c2.2,0.1,4.5,0,6.7,0c1.9-0.1,3.9-0.1,5.8-0.3c2.1-0.1,4.2-0.4,6.3-0.6c2-0.2,4.1-0.5,6.1-0.8c1.9-0.3,3.9-0.7,5.8-1.1
			c2.1-0.5,4.3-0.9,6.4-1.5c1.8-0.5,3.5-1,5.3-1.6c2.2-0.7,4.5-1.4,6.6-2.2c1.6-0.6,3.1-1.3,4.7-1.9c2.3-1,4.6-1.9,6.8-3
			c1.4-0.7,2.7-1.4,4.1-2.2c2.4-1.3,4.8-2.5,7.1-3.9c1-0.6,1.9-1.3,2.8-1.9c6-3.9,11.9-8.2,17.4-13.2
			C395.1,431.5,396.7,430,398.2,428.5z"/>
		<path class="st9" d="M-437,1752.6c-2-0.8-3.9-1.7-5.9-2.6C-440.9,1750.8-439,1751.8-437,1752.6z"/>
		<path class="st9" d="M-470.2,1733.4c-1.8-1.4-3.4-2.9-5.1-4.4C-473.6,1730.5-472,1732-470.2,1733.4z"/>
		<path class="st9" d="M-459.7,1740.9c-2.1-1.4-4.1-2.9-6.2-4.3C-463.8,1738.1-461.8,1739.6-459.7,1740.9z"/>
		<path class="st9" d="M-480,1724.8c-1.3-1.3-2.6-2.7-3.9-4C-482.6,1722.2-481.4,1723.6-480,1724.8z"/>
		<path class="st9" d="M-509.4,1682.7c-0.7-1.6-1.3-3.3-1.9-4.9C-510.7,1679.4-510.1,1681.1-509.4,1682.7z"/>
		<path class="st9" d="M-448.6,1747.3c-2.3-1.2-4.4-2.5-6.6-3.8C-453,1744.8-450.8,1746.1-448.6,1747.3z"/>
		<path class="st9" d="M-503.7,1694.1c-0.6-1.1-1.2-2.3-1.8-3.5C-504.9,1691.8-504.3,1693-503.7,1694.1z"/>
		<path class="st9" d="M-489,1715.3c-0.9-1.1-1.8-2.3-2.7-3.4C-490.8,1713-490,1714.2-489,1715.3z"/>
		<path class="st9" d="M-496.9,1705c-0.7-1-1.3-2.1-2-3.1C-498.2,1702.9-497.6,1704-496.9,1705z"/>
		<path class="st9" d="M246.4,1356.8c1.4-1.1,2.9-2.1,4.4-3.1C249.4,1354.7,247.9,1355.7,246.4,1356.8z"/>
		<path class="st9" d="M-424.9,1756.7c0.1,0,0.1,0,0.2,0.1c-0.8-0.2-1.5-0.5-2.3-0.8C-426.2,1756.2-425.6,1756.5-424.9,1756.7z"/>
		<path class="st10" d="M225.4,1376.6c4.6-5.5,9.7-10.3,14.9-14.8c-1,0.9-2.2,1.7-3.2,2.6c-74.4,68-164.8,117.2-261.6,142.3
			c-47,12.2-95.5,18.9-144.2,19.8c-37.9,0.7-75.5-2.4-112.5-8.5c4.8,23.7,10.7,47.2,18.3,70.2c22.8,69.3-14.8,144-84.1,166.9
			c-25.7,8.5-52.2,8.6-76.4,1.9c84.3,24.1,171.7,35.5,259.9,33.8c69.4-1.3,138.5-10.8,205.6-28.2c102.8-26.7,200.6-72.5,287.6-134
			c-30.6-20-60.3-41.8-88.6-65.7C185.2,1515.7,178.3,1432.4,225.4,1376.6z"/>
		<path class="st9" d="M391.1,1346.9c2.2,1.2,4.3,2.6,6.5,4C395.4,1349.4,393.3,1348.1,391.1,1346.9z"/>
		<path class="st9" d="M402.1,1353.8c2.1,1.5,4.2,3.1,6.3,4.8C406.3,1357,404.3,1355.3,402.1,1353.8z"/>
		<path class="st11" d="M458.4,1459.4c-0.6-31-12-61.9-34.6-86.6c-4.8-5.3-10-9.9-15.5-14.2c-2.1-1.6-4.1-3.3-6.3-4.8
			c-1.5-1.1-3.1-2-4.6-3c-2.1-1.4-4.3-2.7-6.5-4c-1.7-1-3.5-1.9-5.3-2.7c-2.1-1-4.1-2.1-6.2-3c-2-0.9-4-1.6-6-2.4
			c-1.9-0.7-3.9-1.5-5.8-2.1c-2.2-0.7-4.4-1.3-6.6-1.9c-1.9-0.5-3.8-1-5.7-1.5c-2.3-0.5-4.5-0.9-6.8-1.3c-1.9-0.3-3.8-0.7-5.7-0.9
			c-2.2-0.3-4.5-0.5-6.7-0.6c-2-0.1-4-0.3-6-0.4c-2.1-0.1-4.3,0-6.4,0c-2.1,0-4.3,0.1-6.4,0.2c-2,0.1-4,0.4-6,0.6
			c-2.2,0.3-4.5,0.5-6.7,0.9c-1.9,0.3-3.8,0.7-5.7,1.1c-2.3,0.5-4.5,1-6.7,1.6c-1.9,0.5-3.8,1.1-5.6,1.7c-2.2,0.7-4.3,1.4-6.5,2.2
			c-2,0.7-3.9,1.6-5.8,2.4c-2,0.8-3.9,1.7-5.9,2.6c-2.1,1-4.1,2.1-6.1,3.3c-1.7,0.9-3.4,1.9-5.1,2.9c-2.2,1.3-4.3,2.8-6.4,4.3
			c-1.5,1-3,2-4.4,3.1c-2.1,1.6-4.1,3.3-6.1,5c-5.2,4.5-10.3,9.4-14.9,14.8c-47.1,55.7-40.2,139.1,15.5,186.2
			c28.3,24,58,45.7,88.6,65.7c30-21.2,58.7-44.2,85.9-69.1C444.7,1532.8,459.1,1496.1,458.4,1459.4z"/>
		<path class="st12" d="M-129.5,854c0.1,0.2,0.2,0.5,0.3,0.7C-129.3,854.5-129.4,854.2-129.5,854z"/>
		<path class="st12" d="M-498.9,1701.9c-1.7-2.5-3.3-5.1-4.8-7.8C-502.2,1696.8-500.6,1699.4-498.9,1701.9z"/>
		<path class="st12" d="M-491.7,1711.9c-1.8-2.2-3.6-4.5-5.2-6.8C-495.3,1707.4-493.5,1709.6-491.7,1711.9z"/>
		<path class="st12" d="M-455.2,1743.6c-1.5-0.9-3-1.7-4.5-2.6C-458.2,1741.9-456.7,1742.7-455.2,1743.6z"/>
		<path class="st12" d="M-483.9,1720.9c-1.7-1.8-3.5-3.6-5.1-5.5C-487.4,1717.2-485.6,1719-483.9,1720.9z"/>
		<path class="st12" d="M-442.8,1749.9c-1.9-0.9-3.9-1.7-5.7-2.6C-446.7,1748.3-444.8,1749.1-442.8,1749.9z"/>
		<path class="st12" d="M-465.8,1736.6c-1.5-1.1-2.9-2.1-4.4-3.2C-468.8,1734.5-467.3,1735.6-465.8,1736.6z"/>
		<path class="st12" d="M-124.5,866.3c0.2,0.6,0.4,1.2,0.6,1.8C-124.1,867.5-124.3,866.9-124.5,866.3z"/>
		<path class="st12" d="M-423.4,1757.1c-0.4-0.1-0.8-0.2-1.2-0.3C-424.3,1756.9-423.8,1757-423.4,1757.1z"/>
		<path class="st12" d="M-475.3,1729.1c-1.6-1.4-3.2-2.8-4.7-4.2C-478.5,1726.3-476.9,1727.7-475.3,1729.1z"/>
		<path class="st12" d="M-505.5,1690.7c-1.4-2.6-2.7-5.3-3.9-8C-508.2,1685.4-506.8,1688-505.5,1690.7z"/>
		<path class="st13" d="M-515.4,1593.2c20.2-70.1,93.4-110.7,163.5-90.5c23.2,6.7,46.9,11.5,70.7,15.5
			c-17.5-86.6-16.9-177.3,3.4-264.4c22-94.5,66.8-183.8,129.6-258.3c8.8-10.4,15.6-21.9,20.7-33.9c-7.2,17.1-18.1,32.9-32.7,46.2
			c-53.9,49.1-137.5,45.3-186.7-8.7c-24.7-27.1-47.5-55.8-68.6-85.7c-55.7,85.8-96.6,181.1-119.8,280.6
			c-36.8,158.1-29,324.7,21.3,477.3c0.8,2.3,1.7,4.5,2.6,6.7C-521.5,1651.7-523.7,1622.2-515.4,1593.2z"/>
		<path class="st12" d="M-117.7,922.6c-0.4,3.8-0.9,7.6-1.6,11.3C-118.5,930.2-118,926.4-117.7,922.6z"/>
		<path class="st12" d="M-122.9,949c-1.2,4-2.6,7.9-4.2,11.8C-125.6,956.9-124.1,953-122.9,949z"/>
		<path class="st12" d="M-119.7,936.1c-0.8,3.7-1.7,7.5-2.7,11.1C-121.3,943.5-120.4,939.8-119.7,936.1z"/>
		<path class="st12" d="M-426.9,1756c-3.4-1-6.8-2.2-10-3.4C-433.7,1753.9-430.3,1755-426.9,1756z"/>
		<path class="st12" d="M-120.8,879.1c0.2,0.7,0.4,1.4,0.5,2.2C-120.4,880.5-120.6,879.8-120.8,879.1z"/>
		<path class="st9" d="M-347,1755.2c69.3-22.9,107-97.6,84.1-166.9c-7.6-23-13.5-46.4-18.3-70.2c-23.8-3.9-47.5-8.8-70.7-15.5
			c-70.2-20.2-143.4,20.4-163.5,90.5c-8.3,29-6.1,58.5,4.1,84.6c0.6,1.6,1.2,3.3,1.9,4.9c1.2,2.7,2.6,5.3,3.9,8
			c0.6,1.2,1.1,2.3,1.8,3.5c1.5,2.7,3.1,5.2,4.8,7.8c0.7,1,1.3,2.1,2,3.1c1.6,2.3,3.4,4.6,5.2,6.8c0.9,1.1,1.8,2.3,2.7,3.4
			c1.6,1.9,3.4,3.7,5.1,5.5c1.3,1.3,2.5,2.7,3.9,4c1.5,1.5,3.1,2.8,4.7,4.2c1.7,1.5,3.4,3,5.1,4.4c1.4,1.1,2.9,2.1,4.4,3.2
			c2,1.5,4.1,3,6.2,4.3c1.4,0.9,3,1.7,4.5,2.6c2.2,1.3,4.4,2.6,6.6,3.8c1.9,0.9,3.8,1.8,5.7,2.6c2,0.9,3.9,1.8,5.9,2.6
			c3.3,1.3,6.6,2.4,10,3.4c0.8,0.2,1.5,0.5,2.3,0.8c0.4,0.1,0.8,0.2,1.2,0.3C-399.2,1763.8-372.7,1763.7-347,1755.2z"/>
		<path class="st14" d="M-347,1755.2c69.3-22.9,107-97.6,84.1-166.9c-7.6-23-13.5-46.4-18.3-70.2c-23.8-3.9-47.5-8.8-70.7-15.5
			c-70.2-20.2-143.4,20.4-163.5,90.5c-8.3,29-6.1,58.5,4.1,84.6c0.6,1.6,1.2,3.3,1.9,4.9c1.2,2.7,2.6,5.3,3.9,8
			c0.6,1.2,1.1,2.3,1.8,3.5c1.5,2.7,3.1,5.2,4.8,7.8c0.7,1,1.3,2.1,2,3.1c1.6,2.3,3.4,4.6,5.2,6.8c0.9,1.1,1.8,2.3,2.7,3.4
			c1.6,1.9,3.4,3.7,5.1,5.5c1.3,1.3,2.5,2.7,3.9,4c1.5,1.5,3.1,2.8,4.7,4.2c1.7,1.5,3.4,3,5.1,4.4c1.4,1.1,2.9,2.1,4.4,3.2
			c2,1.5,4.1,3,6.2,4.3c1.4,0.9,3,1.7,4.5,2.6c2.2,1.3,4.4,2.6,6.6,3.8c1.9,0.9,3.8,1.8,5.7,2.6c2,0.9,3.9,1.8,5.9,2.6
			c3.3,1.3,6.6,2.4,10,3.4c0.8,0.2,1.5,0.5,2.3,0.8c0.4,0.1,0.8,0.2,1.2,0.3C-399.2,1763.8-372.7,1763.7-347,1755.2z"/>
		<path class="st14" d="M-347,1755.2c69.3-22.9,107-97.6,84.1-166.9c-7.6-23-13.5-46.4-18.3-70.2c-23.8-3.9-47.5-8.8-70.7-15.5
			c-70.2-20.2-143.4,20.4-163.5,90.5c-8.3,29-6.1,58.5,4.1,84.6c0.6,1.6,1.2,3.3,1.9,4.9c1.2,2.7,2.6,5.3,3.9,8
			c0.6,1.2,1.1,2.3,1.8,3.5c1.5,2.7,3.1,5.2,4.8,7.8c0.7,1,1.3,2.1,2,3.1c1.6,2.3,3.4,4.6,5.2,6.8c0.9,1.1,1.8,2.3,2.7,3.4
			c1.6,1.9,3.4,3.7,5.1,5.5c1.3,1.3,2.5,2.7,3.9,4c1.5,1.5,3.1,2.8,4.7,4.2c1.7,1.5,3.4,3,5.1,4.4c1.4,1.1,2.9,2.1,4.4,3.2
			c2,1.5,4.1,3,6.2,4.3c1.4,0.9,3,1.7,4.5,2.6c2.2,1.3,4.4,2.6,6.6,3.8c1.9,0.9,3.8,1.8,5.7,2.6c2,0.9,3.9,1.8,5.9,2.6
			c3.3,1.3,6.6,2.4,10,3.4c0.8,0.2,1.5,0.5,2.3,0.8c0.4,0.1,0.8,0.2,1.2,0.3C-399.2,1763.8-372.7,1763.7-347,1755.2z"/>
		<path class="st14" d="M-347,1755.2c69.3-22.9,107-97.6,84.1-166.9c-7.6-23-13.5-46.4-18.3-70.2c-23.8-3.9-47.5-8.8-70.7-15.5
			c-70.2-20.2-143.4,20.4-163.5,90.5c-8.3,29-6.1,58.5,4.1,84.6c0.6,1.6,1.2,3.3,1.9,4.9c1.2,2.7,2.6,5.3,3.9,8
			c0.6,1.2,1.1,2.3,1.8,3.5c1.5,2.7,3.1,5.2,4.8,7.8c0.7,1,1.3,2.1,2,3.1c1.6,2.3,3.4,4.6,5.2,6.8c0.9,1.1,1.8,2.3,2.7,3.4
			c1.6,1.9,3.4,3.7,5.1,5.5c1.3,1.3,2.5,2.7,3.9,4c1.5,1.5,3.1,2.8,4.7,4.2c1.7,1.5,3.4,3,5.1,4.4c1.4,1.1,2.9,2.1,4.4,3.2
			c2,1.5,4.1,3,6.2,4.3c1.4,0.9,3,1.7,4.5,2.6c2.2,1.3,4.4,2.6,6.6,3.8c1.9,0.9,3.8,1.8,5.7,2.6c2,0.9,3.9,1.8,5.9,2.6
			c3.3,1.3,6.6,2.4,10,3.4c0.8,0.2,1.5,0.5,2.3,0.8c0.4,0.1,0.8,0.2,1.2,0.3C-399.2,1763.8-372.7,1763.7-347,1755.2z"/>
		<path class="st15" d="M-164,809.1c15.1,12.7,26.6,28.1,34.5,44.9c-5.5-11.8-12.7-22.9-21.9-33.1c-65.6-72-113.8-159.6-139.4-253.2
			c-19.3-70.4-91.9-111.9-162.3-92.6c-70.4,19.3-111.8,92-92.6,162.4c26.9,98.5,71.5,192.1,130.4,275.7
			c19.9-30.7,41.6-60.3,65.2-88.3C-303.1,769.2-219.8,762.1-164,809.1z"/>
		<path class="st15" d="M-164,809.1c15.1,12.7,26.6,28.1,34.5,44.9c-5.5-11.8-12.7-22.9-21.9-33.1c-65.6-72-113.8-159.6-139.4-253.2
			c-19.3-70.4-91.9-111.9-162.3-92.6c-70.4,19.3-111.8,92-92.6,162.4c26.9,98.5,71.5,192.1,130.4,275.7
			c19.9-30.7,41.6-60.3,65.2-88.3C-303.1,769.2-219.8,762.1-164,809.1z"/>
		<path class="st16" d="M-127.2,960.8c-0.1,0.2-0.2,0.5-0.3,0.7C-127.3,961.3-127.3,961-127.2,960.8z"/>
		<path class="st16" d="M-122.4,947.2c-0.2,0.6-0.3,1.2-0.5,1.8C-122.7,948.4-122.6,947.8-122.4,947.2z"/>
		<path class="st16" d="M-129.2,854.7c1.7,3.8,3.3,7.7,4.7,11.6C-125.9,862.4-127.4,858.5-129.2,854.7z"/>
		<path class="st16" d="M-123.9,868.1c1.2,3.6,2.3,7.3,3.1,11C-121.6,875.4-122.7,871.7-123.9,868.1z"/>
		<path class="st16" d="M-117.5,920.7c0,0.6-0.2,1.3-0.2,1.9C-117.6,922-117.5,921.3-117.5,920.7z"/>
		<path class="st16" d="M-119.2,933.9c-0.1,0.7-0.3,1.4-0.4,2.2C-119.5,935.4-119.4,934.7-119.2,933.9z"/>
		<path class="st17" d="M-160.2,1007.6c14.6-13.3,25.5-29.1,32.7-46.2c0.1-0.2,0.2-0.5,0.3-0.7c1.6-3.9,3-7.8,4.2-11.8
			c0.2-0.6,0.4-1.2,0.5-1.8c1.1-3.7,2-7.4,2.7-11.1c0.1-0.7,0.3-1.4,0.4-2.2c0.7-3.8,1.2-7.5,1.6-11.3c0.1-0.6,0.2-1.3,0.2-1.9
			c0.4-4.4,0.5-8.8,0.4-13.1c-0.1-4.4-0.4-8.8-0.9-13.1c-0.1-0.6-0.2-1.3-0.3-1.9c-0.5-3.8-1.2-7.5-2-11.3c-0.2-0.7-0.4-1.4-0.5-2.2
			c-0.9-3.7-1.9-7.4-3.1-11c-0.2-0.6-0.4-1.2-0.6-1.8c-1.4-3.9-2.9-7.8-4.7-11.6c-0.1-0.2-0.2-0.4-0.3-0.7
			c-7.9-16.8-19.4-32.1-34.5-44.9c-55.8-47.1-139.2-40-186.2,15.8c-23.6,28-45.3,57.6-65.2,88.3c21.1,29.9,43.9,58.6,68.6,85.7
			C-297.7,1052.9-214.1,1056.8-160.2,1007.6z"/>
		<path class="st17" d="M-160.2,1007.6c14.6-13.3,25.5-29.1,32.7-46.2c0.1-0.2,0.2-0.5,0.3-0.7c1.6-3.9,3-7.8,4.2-11.8
			c0.2-0.6,0.4-1.2,0.5-1.8c1.1-3.7,2-7.4,2.7-11.1c0.1-0.7,0.3-1.4,0.4-2.2c0.7-3.8,1.2-7.5,1.6-11.3c0.1-0.6,0.2-1.3,0.2-1.9
			c0.4-4.4,0.5-8.8,0.4-13.1c-0.1-4.4-0.4-8.8-0.9-13.1c-0.1-0.6-0.2-1.3-0.3-1.9c-0.5-3.8-1.2-7.5-2-11.3c-0.2-0.7-0.4-1.4-0.5-2.2
			c-0.9-3.7-1.9-7.4-3.1-11c-0.2-0.6-0.4-1.2-0.6-1.8c-1.4-3.9-2.9-7.8-4.7-11.6c-0.1-0.2-0.2-0.4-0.3-0.7
			c-7.9-16.8-19.4-32.1-34.5-44.9c-55.8-47.1-139.2-40-186.2,15.8c-23.6,28-45.3,57.6-65.2,88.3c21.1,29.9,43.9,58.6,68.6,85.7
			C-297.7,1052.9-214.1,1056.8-160.2,1007.6z"/>
		<path class="st18" d="M1151.6,164.9c0.2,12.9-1.4,26-5.2,39.1c-20.1,70.1-93.3,110.7-163.5,90.5c-23.3-6.7-46.9-11.6-70.8-15.5
			c18.8,93.5,16.5,191.4-8,283.3c-22.5,84.2-63.8,164.2-119.3,232.1c1.6-1.6,3.1-3.3,4.8-4.9c53.8-49.3,137.4-45.7,186.7,8.2
			c25,27.3,48.1,56.4,69.5,86.7c50.9-78.2,89.7-164.3,113.6-253.9c21.3-79.6,31.2-162,29.6-244.8c-1.7-88.6-16.6-176.1-44.1-259.9
			c-15.5-47.2-55.1-79.6-100.6-88.4c3.8,1,7.7,2,11.5,3.1C1113,56.8,1150.5,108.4,1151.6,164.9z"/>
		<path class="st5" d="M978.1,41.6c-69.3,22.9-107,97.5-84.2,166.9c7.6,23.1,13.5,46.7,18.3,70.6c23.9,3.9,47.5,8.8,70.8,15.5
			c70.2,20.1,143.4-20.4,163.5-90.5c3.8-13,5.4-26.2,5.2-39.1c-1.1-56.5-38.6-108.1-95.7-124.4c-3.8-1.1-7.7-2-11.5-3.1
			C1022.9,33.2,1000.2,34.3,978.1,41.6z"/>
		<path class="st1" d="M978.1,41.6c-69.3,22.9-107,97.5-84.2,166.9c7.6,23.1,13.5,46.7,18.3,70.6c23.9,3.9,47.5,8.8,70.8,15.5
			c70.2,20.1,143.4-20.4,163.5-90.5c3.8-13,5.4-26.2,5.2-39.1c-1.1-56.5-38.6-108.1-95.7-124.4c-3.8-1.1-7.7-2-11.5-3.1
			C1022.9,33.2,1000.2,34.3,978.1,41.6z"/>
		<path class="st19" d="M1154,1679.4c-3.4,4.7-7,9.1-11,13.4C1147,1688.5,1150.6,1684.1,1154,1679.4z"/>
		<path class="st20" d="M793.4,989c-1.8-1.5-3.4-3.2-5.2-4.8c58.2,65.8,102.6,144.1,128.3,227.5c28.1,91,34.2,188.9,18.8,283.1
			c23.7-4.8,47.2-10.6,70.2-18.2c69.3-22.8,144,14.9,166.9,84.2c4.2,12.9,6.4,26,6.7,38.8c0.3,13.8-1.7,27.3-5.6,40.2
			c0.1-0.4,0.3-0.8,0.4-1.2c24.3-84.8,35.8-172.7,34.1-261.3c-1.6-82.8-14.7-164.8-39-243.5c-27.3-88.7-69.5-173.2-123.3-249.4
			c-20.2,31.1-42.2,61-66.1,89.3C932.5,1029.3,849.1,1036.2,793.4,989z"/>
		<path class="st19" d="M1141.7,1694.2c-4.2,4.3-8.7,8.2-13.5,11.9C1133,1702.5,1137.5,1698.5,1141.7,1694.2z"/>
		<path class="st19" d="M1165.1,1661.1c-2.7,5.4-5.8,10.7-9.3,15.7C1159.3,1671.9,1162.4,1666.6,1165.1,1661.1z"/>
		<path class="st19" d="M1172.4,1643.2c-1.7,5-3.6,10-5.8,14.7C1168.8,1653.2,1170.7,1648.3,1172.4,1643.2z"/>
		<path class="st19" d="M1088.1,1727.7c-0.4,0.1-0.8,0.3-1.3,0.4C1087.3,1727.9,1087.7,1727.8,1088.1,1727.7z"/>
		<path class="st19" d="M1106.5,1720c-5.7,2.9-11.6,5.5-17.9,7.6C1094.7,1725.5,1100.7,1722.9,1106.5,1720z"/>
		<path class="st19" d="M1124.6,1708.9c-4.8,3.5-9.9,6.7-15.2,9.6C1114.7,1715.7,1119.8,1712.4,1124.6,1708.9z"/>
		<path class="st21" d="M789.6,789.5c-1.7,1.6-3.2,3.2-4.8,4.9c-2.3,2.8-4.4,5.7-6.7,8.4c-17.7,20.9-27.8,45.6-30.6,70.9
			c0,0.1,0,0.2,0,0.3c-0.4,3.6-0.6,7.1-0.6,10.7c0,1.9,0,3.8,0,5.7c0,1.8,0.1,3.5,0.2,5.2c1.9,29,13.2,57.6,34.4,80.7
			c2.4,2.6,4.6,5.3,6.9,7.9c1.7,1.6,3.3,3.3,5.2,4.8c55.7,47.2,139.1,40.3,186.2-15.4c23.9-28.2,45.9-58.2,66.1-89.3
			c-21.4-30.3-44.5-59.4-69.5-86.7C927,743.9,843.4,740.2,789.6,789.5z"/>
	</g>
</g>
</svg>
