<?xml version="1.0" encoding="utf-8"?>
<!-- Generator: Adobe Illustrator 21.0.2, SVG Export Plug-In . SVG Version: 6.00 Build 0)  -->
<svg version="1.1" id="Capa_1" xmlns="http://www.w3.org/2000/svg" xmlns:xlink="http://www.w3.org/1999/xlink" x="0px" y="0px"
	 viewBox="0 0 226.8 226.8" style="enable-background:new 0 0 226.8 226.8;" xml:space="preserve">
<g>
	<path d="M171.7,118.2C171.7,118.2,171.7,118.2,171.7,118.2c-0.3,0.7-0.8,1.3-1.3,1.8l-37.6,37.7c-0.8,0.8-1.9,1.3-3,1.3
		c-1.1,0-2.2-0.4-3-1.3c-1.7-1.7-1.7-4.4,0-6l30.7-30.7H59.1c-2.4,0-4.3-1.9-4.3-4.3c0-2.4,1.9-4.3,4.3-4.3h98.3l-30.7-30.8
		c-1.7-1.7-1.7-4.4,0-6c1.7-1.7,4.4-1.7,6,0l37.8,37.9c0.1,0.1,0.1,0.1,0.2,0.1c0.1,0.1,0.1,0.2,0.2,0.3c0.2,0.3,0.4,0.5,0.6,0.8
		c0.1,0.2,0.1,0.3,0.2,0.5c0.2,0.4,0.2,0.8,0.3,1.3c0,0,0,0.1,0,0.1c0,0,0,0,0,0C172,117.2,171.9,117.7,171.7,118.2z"/>
	<path d="M0,113.4C0,50.9,50.9,0,113.4,0c62.5,0,113.4,50.9,113.4,113.4s-50.9,113.4-113.4,113.4S0,175.9,0,113.4z M5.5,113.4
		c0,59.5,48.4,107.9,107.9,107.9c59.5,0,107.9-48.4,107.9-107.9c0-59.5-48.4-107.9-107.9-107.9C53.9,5.5,5.5,53.9,5.5,113.4z"/>
</g>
</svg>
