<?xml version="1.0" encoding="utf-8"?>
<!-- Generator: Adobe Illustrator 21.0.2, SVG Export Plug-In . SVG Version: 6.00 Build 0)  -->
<svg version="1.1" id="Capa_1" xmlns="http://www.w3.org/2000/svg" xmlns:xlink="http://www.w3.org/1999/xlink" x="0px" y="0px"
	 viewBox="0 0 226.8 226.8" style="enable-background:new 0 0 226.8 226.8;" xml:space="preserve">
<g>
	<path d="M54.8,116.6C54.8,116.6,54.8,116.6,54.8,116.6c0-0.1,0-0.1,0-0.1c0-0.5,0.1-0.9,0.3-1.3c0.1-0.2,0.1-0.3,0.2-0.5
		c0.1-0.3,0.3-0.6,0.6-0.8c0.1-0.1,0.1-0.2,0.2-0.3c0.1-0.1,0.1-0.1,0.2-0.1l37.8-37.9c1.7-1.7,4.4-1.7,6,0c1.7,1.7,1.7,4.4,0,6
		l-30.7,30.8h98.3c2.4,0,4.3,1.9,4.3,4.3c0,2.4-1.9,4.3-4.3,4.3H69.4l30.7,30.7c1.7,1.7,1.7,4.4,0,6c-0.8,0.8-1.9,1.3-3,1.3
		c-1.1,0-2.2-0.4-3-1.3L56.4,120c-0.6-0.4-1-1-1.3-1.7c0,0,0,0,0-0.1C54.9,117.7,54.8,117.2,54.8,116.6z"/>
	<path d="M113.4,226.8C50.9,226.8,0,175.9,0,113.4S50.9,0,113.4,0s113.4,50.9,113.4,113.4S175.9,226.8,113.4,226.8z M113.4,5.5
		C53.9,5.5,5.5,53.9,5.5,113.4c0,59.5,48.4,107.9,107.9,107.9c59.5,0,107.9-48.4,107.9-107.9C221.2,53.9,172.9,5.5,113.4,5.5z"/>
</g>
</svg>
